PathFileType	4	(X/Y/Z)	D:\TRACE\spot_10-12-23\spot_arm_motion_1_2-v60.trc
DataRate	CameraRate	NumFrames	NumMarkers	Units	OrigDataRate	OrigDataStartFrame	OrigNumFrames
100.00	100.00	      31	9	mm	100.00	2626	      7000
Frame#	Time	front left toe			Front right toe			aft left toe			aft right toe			Arm			FL body			FR body			AL Body			AR Body			
		X1	Y1	Z1	X2	Y2	Z2	X3	Y3	Z3	X4	Y4	Z4	X5	Y5	Z5	X6	Y6	Z6	X7	Y7	Z7	X8	Y8	Z8	X9	Y9	Z9	

2626	26.250	-371.42010	20.96661	-34.20543	142.48714	22.66414	-123.88066	-263.22595	26.89532	550.33453	246.80280	23.75933	457.18597	29.63859	780.15332	-756.49414	-208.24345	534.50281	-129.89842	-57.84980	540.79523	-157.92528	-52.72681	570.08948	739.56177	96.29457	570.64581	715.50983	
2627	26.260	-371.81018	20.74828	-33.95994	142.06206	22.92386	-123.73669	-263.40582	26.63000	550.49951	246.61142	23.57154	457.16861	26.91715	780.13501	-756.56671	-209.35234	534.59021	-129.71416	-59.04878	540.87732	-157.77534	-53.11666	569.71741	739.31104	96.26040	570.41077	715.58215	
2628	26.270	-372.33939	20.67109	-33.63388	141.67741	22.91201	-123.97647	-263.76682	26.42081	550.75336	246.22318	23.20602	457.15030	24.55555	780.13916	-756.57764	-210.75978	534.46997	-129.28856	-60.60240	540.99847	-157.60332	-53.28173	569.45227	739.47852	96.20327	570.22827	715.55243	
2629	26.280	-372.66299	20.54490	-33.40191	141.91061	23.41501	-123.86619	-263.99249	26.17323	550.92981	245.90842	22.81229	457.11160	22.59583	779.82855	-756.71216	-212.17833	534.66229	-128.89310	-62.71449	541.62140	-157.79823	-53.51364	569.26721	739.66522	96.21822	570.08020	715.50385	
2630	26.290	-373.16428	20.58732	-33.17016	140.91409	23.69642	-124.06208	-264.04483	25.89543	551.15106	245.79231	22.56438	457.11826	20.71012	779.51556	-756.70801	-213.63004	534.84631	-128.44720	-63.94152	541.73511	-157.63448	-53.24176	569.02869	740.40796	95.88181	569.74133	714.82385	
2631	26.300	-373.38519	20.53140	-33.06436	140.33331	24.05411	-123.74918	-264.09503	25.52842	551.36975	245.71275	22.26636	457.18689	19.66251	779.24817	-756.65668	-214.88457	534.83948	-128.10587	-64.71976	541.63501	-156.67584	-53.31874	568.87939	740.62427	95.76450	569.61237	714.78619	
2632	26.310	-373.66492	20.45381	-32.79353	140.93657	24.35308	-123.48935	-264.31677	25.16730	551.45190	245.58356	21.90908	457.23639	18.47434	779.05695	-756.66083	-216.37360	534.77753	-127.63995	-66.20974	541.79742	-156.46642	-54.11921	568.49866	739.98602	95.72622	569.72137	715.27271	
2633	26.320	-373.91226	20.35822	-32.51055	140.82381	24.44292	-123.40553	-264.53220	24.81451	551.48291	245.45198	21.69335	457.24780	17.78419	778.97595	-756.55615	-217.61052	534.95270	-127.54799	-67.62310	542.07251	-156.40051	-54.25831	568.10413	740.32251	95.34453	569.48224	715.28204	
2634	26.330	-373.98837	20.19102	-32.25645	140.55177	24.64536	-123.31013	-264.74139	24.42451	551.53503	245.25827	21.38010	457.35175	17.67206	778.85522	-756.53906	-218.95116	535.10114	-127.16756	-68.78140	542.17493	-156.60551	-54.61409	567.63092	740.37866	94.84454	569.16052	715.26312	
2635	26.340	-374.04837	20.14968	-32.11215	140.43117	24.77255	-123.23976	-264.74454	24.01240	551.64148	245.10442	21.06502	457.39722	17.85774	778.73724	-756.44421	-220.00919	535.19135	-126.91562	-70.05634	542.27673	-156.46059	-54.97768	567.22668	740.28699	94.34040	568.74762	715.16687	
2636	26.350	-374.12363	20.11901	-31.94548	140.10565	24.72688	-123.47463	-264.73248	23.64816	551.87701	245.06171	20.87209	457.47629	18.62572	778.59851	-756.23877	-221.15152	535.12817	-126.60654	-71.31583	542.12305	-156.29312	-54.28584	566.80017	740.73212	93.64129	568.47607	714.69635	
2637	26.360	-374.25916	20.05301	-31.84492	139.38319	24.73912	-123.45713	-264.75739	23.37447	552.00165	244.89186	20.70399	457.52762	19.43588	778.74811	-756.21021	-222.11159	534.94263	-126.40196	-72.18440	541.87671	-156.24664	-55.60485	567.42371	741.17267	93.77506	568.60205	715.00677	
2638	26.370	-374.34576	20.11509	-31.75095	139.31264	24.81323	-123.36786	-264.82007	22.96668	552.15643	244.75111	20.59714	457.53671	19.93618	779.38806	-756.15106	-223.08131	535.00482	-126.39082	-72.95950	541.55066	-155.75011	-56.26093	567.43976	741.24402	92.57407	568.22363	714.73553	
2639	26.380	-374.32074	20.12705	-31.69913	139.14273	24.93773	-123.29047	-264.96765	22.45132	552.27521	244.52678	19.99749	457.27872	20.45617	780.53522	-756.22009	-223.74773	535.12439	-126.31165	-73.64227	541.18475	-155.97408	-57.14753	567.30103	741.27301	91.70049	567.54449	714.74329	
2640	26.390	-374.23880	20.20462	-31.64127	138.95670	25.25186	-123.14643	-265.16345	21.89292	552.27850	244.60637	19.96045	457.47812	21.33698	781.76379	-756.19635	-224.31717	535.30438	-126.36797	-74.16709	541.19733	-155.62920	-57.92860	566.46082	740.81274	91.11852	567.41693	715.35022	
2641	26.400	-374.21970	20.28355	-31.61279	139.06720	25.11673	-123.13540	-265.31638	21.60205	552.39087	244.51764	20.08133	457.88348	22.04832	783.40698	-756.08148	-224.81635	535.46887	-126.44898	-74.73720	541.12030	-155.62270	-58.84892	566.77576	741.66516	89.82076	567.09448	715.75891	
2642	26.410	-374.18460	20.35007	-31.57076	139.06717	25.24232	-123.00018	-265.44342	21.27737	552.42932	243.90182	19.18131	457.52780	22.78769	784.64783	-755.78442	-225.24297	535.61969	-126.48782	-75.21260	541.12323	-155.60539	-60.61629	566.63416	741.81720	88.53655	566.15851	715.32935	
2643	26.420	-374.18536	20.41237	-31.56260	139.39363	25.49297	-122.79482	-265.49924	20.81795	552.62787	244.44006	19.59566	458.19614	23.21477	786.31763	-755.36877	-225.47737	535.76495	-126.50542	-76.06673	541.79132	-156.85982	-61.94709	565.88043	741.09235	87.55114	565.55920	715.64777	
2644	26.430	-374.18765	20.41164	-31.51700	139.48276	25.67669	-122.63936	-265.53369	20.25198	552.76483	244.36647	19.36925	458.36252	23.32528	787.51508	-754.99927	-225.60150	535.91138	-126.46148	-76.59398	542.33185	-157.00327	-62.54297	565.29712	741.22424	86.84138	565.24976	716.42596	
2645	26.440	-374.22455	20.42737	-31.47209	139.60674	25.98405	-122.31884	-265.65802	19.77123	552.88580	243.76146	18.56092	457.93347	23.46609	788.72144	-754.71301	-225.83154	536.18170	-126.44982	-76.53864	542.33777	-156.72069	-63.39955	564.66034	741.89960	85.98676	564.55176	716.62115	
2646	26.450	-374.22992	20.49911	-31.42512	139.70055	26.10987	-122.13150	-265.54703	19.39897	553.01190	243.78085	18.24378	458.07672	23.36667	789.72101	-754.46832	-226.22508	536.68054	-126.49198	-76.91676	542.83258	-156.63644	-64.03435	564.06970	742.06525	84.90331	563.42322	716.31061	
2647	26.460	-374.07901	20.53549	-31.42230	139.83607	26.17224	-122.07243	-265.49106	19.07188	553.08215	243.83839	18.07119	458.18988	23.05590	790.60291	-754.16852	-226.52354	537.17987	-126.55144	-76.99446	542.90076	-155.80354	-64.51413	562.72601	741.88092	84.32685	563.18524	717.27490	
2648	26.470	-373.87616	20.56903	-31.44236	139.09933	25.47643	-122.08295	-265.43085	18.76282	553.10919	244.01294	17.98881	458.39951	22.31012	791.38129	-753.92761	-226.65211	537.72278	-126.56249	-77.19353	543.32434	-155.76540	-65.63947	562.62958	742.36627	83.10493	562.19995	717.11298	
2649	26.480	-373.78143	20.67109	-31.43240	139.20329	25.58809	-121.98972	-265.18182	18.24869	553.17834	244.27649	17.85254	458.56244	21.69440	791.82953	-754.05463	-226.88254	538.27582	-126.39921	-77.38557	544.06427	-156.04739	-66.28197	561.96710	742.78583	84.05759	562.22778	718.88214	
2650	26.490	-373.59689	20.71172	-31.33977	139.93732	26.26295	-121.76889	-264.93130	17.84063	553.26941	244.59810	17.64339	458.71457	21.06028	792.26190	-754.00189	-227.10020	538.61517	-126.35973	-77.67909	544.54706	-155.85468	-66.59341	561.63184	743.09113	83.80164	561.72363	718.97272	
2651	26.500	-373.37573	20.69139	-31.22828	140.06566	26.20086	-121.85581	-264.24539	16.47426	552.89514	244.94487	17.35305	458.90756	20.33061	792.55524	-753.90240	-227.40887	538.93048	-126.25574	-77.96361	544.75513	-155.15807	-67.40138	560.96918	743.05695	81.80678	560.51508	717.60419	
2652	26.510	-373.17755	20.65632	-31.04107	140.30884	26.29652	-121.73371	-264.17303	16.31792	552.92078	245.27312	17.13594	459.04584	18.90599	792.87036	-753.80292	-227.85095	539.34576	-126.13273	-78.22270	545.05438	-155.04909	-67.78925	560.27698	743.13757	81.68275	560.02338	717.90179	
2653	26.520	-373.04669	20.67413	-30.95026	140.50867	26.36037	-121.65523	-264.34030	16.99782	553.43402	245.33939	16.95773	459.04779	18.13740	793.04718	-753.88031	-228.24117	539.47363	-125.94337	-78.60909	545.23077	-154.86003	-67.96810	560.01410	743.36206	81.60003	560.06958	718.58795	
2654	26.530	-372.81851	20.61390	-30.80321	140.73055	26.45283	-121.65269	-264.06656	16.70206	553.53772	245.42902	16.76199	458.98697	17.41260	793.06506	-754.09045	-228.64783	539.56146	-125.81947	-78.29217	544.81799	-154.29396	-68.08537	559.86469	743.39313	81.46096	559.89349	718.65381	
2655	26.540	-372.50446	20.51817	-30.64243	141.12006	26.80214	-121.49020	-263.62921	16.37418	553.59381	245.66603	16.66215	459.05338	15.93492	793.03003	-753.87494	-229.03439	539.62964	-125.46348	-78.87564	544.96143	-154.26335	-67.58447	559.50195	742.90790	81.39436	559.73486	718.70605	
2656	26.550	-372.09393	20.32253	-30.47725	141.45680	26.99004	-121.53416	-263.31824	16.10349	553.74426	246.19696	16.44595	459.18982	15.29798	792.75195	-753.88269	-229.32925	539.65717	-125.27346	-79.09966	545.05042	-153.66478	-68.22014	559.59851	743.19891	81.26063	559.47955	718.68665	
